REM DIRINDEX 1\2,1\3,1\4
REM DIRNAME folder01,folder02,folder03,folder04
TITLE ""
FILE "Disc1Track10.mp3" MP3
  TRACK 01 AUDIO
    TITLE "0:"
    INDEX 01 00:00:00
  TRACK 02 AUDIO
    TITLE "4:cjc085_0540"
    INDEX 01 00:05:24
  TRACK 03 AUDIO
    TITLE "0:"
    INDEX 01 00:07:56
  TRACK 04 AUDIO
    TITLE "4:cjc085_0541"
    INDEX 01 00:09:06
  TRACK 05 AUDIO
    TITLE "2:cjc085_0542"
    INDEX 01 00:11:13
  TRACK 06 AUDIO
    TITLE "0:"
    INDEX 01 00:13:61
  TRACK 07 AUDIO
    TITLE "3:cjc085_0543"
    INDEX 01 00:14:37
  TRACK 08 AUDIO
    TITLE "0:"
    INDEX 01 00:16:30
  TRACK 09 AUDIO
    TITLE "4:cjc085_0544"
    INDEX 01 00:17:51
  TRACK 10 AUDIO
    TITLE "2:cjc085_0545"
    INDEX 01 00:20:10
  TRACK 11 AUDIO
    TITLE "0:"
    INDEX 01 00:24:37
  TRACK 12 AUDIO
    TITLE "3:cjc085_0546"
    INDEX 01 00:24:57
  TRACK 13 AUDIO
    TITLE "0:"
    INDEX 01 00:29:07
  TRACK 14 AUDIO
    TITLE "4:cjc085_0547"
    INDEX 01 00:29:58
  TRACK 15 AUDIO
    TITLE "2:cjc085_0548"
    INDEX 01 00:32:01
  TRACK 16 AUDIO
    TITLE "0:"
    INDEX 01 00:36:50
  TRACK 17 AUDIO
    TITLE "3:cjc085_0549"
    INDEX 01 00:37:01
  TRACK 18 AUDIO
    TITLE "0:"
    INDEX 01 00:39:66
  TRACK 19 AUDIO
    TITLE "4:cjc085_0550"
    INDEX 01 00:40:34
  TRACK 20 AUDIO
    TITLE "2:cjc085_0551"
    INDEX 01 00:42:55
  TRACK 21 AUDIO
    TITLE "0:"
    INDEX 01 00:46:29
  TRACK 22 AUDIO
    TITLE "3:cjc085_0552"
    INDEX 01 00:46:51
  TRACK 23 AUDIO
    TITLE "0:"
    INDEX 01 00:50:13
  TRACK 24 AUDIO
    TITLE "4:cjc085_0553"
    INDEX 01 00:51:11
  TRACK 25 AUDIO
    TITLE "2:cjc085_0554"
    INDEX 01 00:53:35
  TRACK 26 AUDIO
    TITLE "0:"
    INDEX 01 00:57:33
  TRACK 27 AUDIO
    TITLE "3:cjc085_0555"
    INDEX 01 00:57:45
  TRACK 28 AUDIO
    TITLE "0:"
    INDEX 01 01:00:43
  TRACK 29 AUDIO
    TITLE "4:cjc085_0556"
    INDEX 01 01:01:01
  TRACK 30 AUDIO
    TITLE "2:cjc085_0557"
    INDEX 01 01:03:16
  TRACK 31 AUDIO
    TITLE "0:"
    INDEX 01 01:07:63
  TRACK 32 AUDIO
    TITLE "3:cjc085_0558"
    INDEX 01 01:07:74
  TRACK 33 AUDIO
    TITLE "0:"
    INDEX 01 01:11:49
  TRACK 34 AUDIO
    TITLE "4:cjc085_0559"
    INDEX 01 01:12:30
  TRACK 35 AUDIO
    TITLE "2:cjc085_0560"
    INDEX 01 01:14:55
  TRACK 36 AUDIO
    TITLE "0:"
    INDEX 01 01:18:02
  TRACK 37 AUDIO
    TITLE "3:cjc085_0561"
    INDEX 01 01:18:23
  TRACK 38 AUDIO
    TITLE "0:"
    INDEX 01 01:21:45
  TRACK 39 AUDIO
    TITLE "4:cjc085_0562"
    INDEX 01 01:22:35
  TRACK 40 AUDIO
    TITLE "2:cjc085_0563"
    INDEX 01 01:24:45
  TRACK 41 AUDIO
    TITLE "0:"
    INDEX 01 01:28:71
  TRACK 42 AUDIO
    TITLE "3:cjc085_0564"
    INDEX 01 01:29:07
  TRACK 43 AUDIO
    TITLE "0:"
    INDEX 01 01:32:64
  TRACK 44 AUDIO
    TITLE "4:cjc085_0565"
    INDEX 01 01:33:48
  TRACK 45 AUDIO
    TITLE "2:cjc085_0566"
    INDEX 01 01:35:37
  TRACK 46 AUDIO
    TITLE "0:"
    INDEX 01 01:37:50
  TRACK 47 AUDIO
    TITLE "3:cjc085_0567"
    INDEX 01 01:37:71
  TRACK 48 AUDIO
    TITLE "0:"
    INDEX 01 01:40:03
  TRACK 49 AUDIO
    TITLE "4:cjc085_0568"
    INDEX 01 01:40:54
  TRACK 50 AUDIO
    TITLE "2:cjc085_0569"
    INDEX 01 01:42:73
  TRACK 51 AUDIO
    TITLE "0:"
    INDEX 01 01:46:06
  TRACK 52 AUDIO
    TITLE "3:cjc085_0570"
    INDEX 01 01:46:37
  TRACK 53 AUDIO
    TITLE "0:"
    INDEX 01 01:49:32
  TRACK 54 AUDIO
    TITLE "4:cjc085_0571"
    INDEX 01 01:49:59
  TRACK 55 AUDIO
    TITLE "2:cjc085_0572"
    INDEX 01 01:51:64
  TRACK 56 AUDIO
    TITLE "0:"
    INDEX 01 01:55:42
  TRACK 57 AUDIO
    TITLE "3:cjc085_0573"
    INDEX 01 01:55:46
  TRACK 58 AUDIO
    TITLE "0:"
    INDEX 01 01:59:01
  TRACK 59 AUDIO
    TITLE "4:cjc085_0574"
    INDEX 01 01:59:73
  TRACK 60 AUDIO
    TITLE "2:cjc085_0575"
    INDEX 01 02:02:34
  TRACK 61 AUDIO
    TITLE "0:"
    INDEX 01 02:05:33
  TRACK 62 AUDIO
    TITLE "3:cjc085_0576"
    INDEX 01 02:05:40
  TRACK 63 AUDIO
    TITLE "0:"
    INDEX 01 02:08:66
  TRACK 64 AUDIO
    TITLE "4:cjc085_0577"
    INDEX 01 02:09:56
  TRACK 65 AUDIO
    TITLE "2:cjc085_0578"
    INDEX 01 02:11:70
  TRACK 66 AUDIO
    TITLE "0:"
    INDEX 01 02:15:60
  TRACK 67 AUDIO
    TITLE "3:cjc085_0579"
    INDEX 01 02:16:03
  TRACK 68 AUDIO
    TITLE "0:"
    INDEX 01 02:19:72
  TRACK 69 AUDIO
    TITLE "4:cjc085_0580"
    INDEX 01 02:20:56
  TRACK 70 AUDIO
    TITLE "2:cjc085_0581"
    INDEX 01 02:22:68
  TRACK 71 AUDIO
    TITLE "0:"
    INDEX 01 02:25:51
  TRACK 72 AUDIO
    TITLE "3:cjc085_0582"
    INDEX 01 02:26:19
  TRACK 73 AUDIO
    TITLE "0:"
    INDEX 01 02:28:73
  TRACK 74 AUDIO
    TITLE "4:cjc085_0583"
    INDEX 01 02:29:31
  TRACK 75 AUDIO
    TITLE "2:cjc085_0584"
    INDEX 01 02:31:46
  TRACK 76 AUDIO
    TITLE "0:"
    INDEX 01 02:35:36
  TRACK 77 AUDIO
    TITLE "3:cjc085_0585"
    INDEX 01 02:36:12
  TRACK 78 AUDIO
    TITLE "0:"
    INDEX 01 02:39:69
  TRACK 79 AUDIO
    TITLE "4:cjc085_0586"
    INDEX 01 02:41:19
  TRACK 80 AUDIO
    TITLE "2:cjc085_0587"
    INDEX 01 02:43:61
  TRACK 81 AUDIO
    TITLE "0:"
    INDEX 01 02:47:66
  TRACK 82 AUDIO
    TITLE "3:cjc085_0588"
    INDEX 01 02:48:11
  TRACK 83 AUDIO
    TITLE "0:"
    INDEX 01 02:51:31
  TRACK 84 AUDIO
    TITLE "4:cjc085_0589"
    INDEX 01 02:52:11
  TRACK 85 AUDIO
    TITLE "2:cjc085_0590"
    INDEX 01 02:54:15
  TRACK 86 AUDIO
    TITLE "0:"
    INDEX 01 02:59:09
  TRACK 87 AUDIO
    TITLE "3:cjc085_0591"
    INDEX 01 02:59:16
  TRACK 88 AUDIO
    TITLE "0:"
    INDEX 01 03:02:29
  TRACK 89 AUDIO
    TITLE "4:cjc085_0592"
    INDEX 01 03:03:26
  TRACK 90 AUDIO
    TITLE "2:cjc085_0593"
    INDEX 01 03:05:58
  TRACK 91 AUDIO
    TITLE "0:"
    INDEX 01 03:10:16
  TRACK 92 AUDIO
    TITLE "3:cjc085_0594"
    INDEX 01 03:10:22
  TRACK 93 AUDIO
    TITLE "0:"
    INDEX 01 03:14:12
  TRACK 94 AUDIO
    TITLE "4:cjc085_0595"
    INDEX 01 03:15:57
  TRACK 95 AUDIO
    TITLE "2:cjc085_0596"
    INDEX 01 03:17:54
  TRACK 96 AUDIO
    TITLE "0:"
    INDEX 01 03:21:08
  TRACK 97 AUDIO
    TITLE "3:cjc085_0597"
    INDEX 01 03:21:36
  TRACK 98 AUDIO
    TITLE "0:"
    INDEX 01 03:24:60
  TRACK 99 AUDIO
    TITLE "4:cjc085_0598"
    INDEX 01 03:25:39
  TRACK 100 AUDIO
    TITLE "2:cjc085_0599"
    INDEX 01 03:27:60
  TRACK 101 AUDIO
    TITLE "0:"
    INDEX 01 03:32:30
  TRACK 102 AUDIO
    TITLE "3:cjc085_0600"
    INDEX 01 03:32:45
  TRACK 103 AUDIO
    TITLE "0:"
    INDEX 01 03:35:42
  TRACK 104 AUDIO
    TITLE "4:cjc085_0601"
    INDEX 01 03:37:54
  TRACK 105 AUDIO
    TITLE "2:cjc085_0602"
    INDEX 01 03:39:61
  TRACK 106 AUDIO
    TITLE "0:"
    INDEX 01 03:43:63
  TRACK 107 AUDIO
    TITLE "3:cjc085_0603"
    INDEX 01 03:44:07
  TRACK 108 AUDIO
    TITLE "0:"
    INDEX 01 03:47:63
  TRACK 109 AUDIO
    TITLE "4:cjc085_0604"
    INDEX 01 03:48:48
  TRACK 110 AUDIO
    TITLE "2:cjc085_0605"
    INDEX 01 03:50:63
  TRACK 111 AUDIO
    TITLE "0:"
    INDEX 01 03:55:37
  TRACK 112 AUDIO
    TITLE "3:cjc085_0606"
    INDEX 01 03:55:74
  TRACK 113 AUDIO
    TITLE "0:"
    INDEX 01 04:00:42
  TRACK 114 AUDIO
    TITLE "4:cjc085_0607"
    INDEX 01 04:01:04
  TRACK 115 AUDIO
    TITLE "2:cjc085_0608"
    INDEX 01 04:03:22
  TRACK 116 AUDIO
    TITLE "0:"
    INDEX 01 04:06:21
  TRACK 117 AUDIO
    TITLE "3:cjc085_0609"
    INDEX 01 04:06:42
  TRACK 118 AUDIO
    TITLE "0:"
    INDEX 01 04:08:71
  TRACK 119 AUDIO
    TITLE "4:cjc085_0610"
    INDEX 01 04:09:43
  TRACK 120 AUDIO
    TITLE "2:cjc085_0611"
    INDEX 01 04:11:38
  TRACK 121 AUDIO
    TITLE "0:"
    INDEX 01 04:13:74
  TRACK 122 AUDIO
    TITLE "3:cjc085_0612"
    INDEX 01 04:14:08
  TRACK 123 AUDIO
    TITLE "0:"
    INDEX 01 04:17:30
  TRACK 124 AUDIO
    TITLE "4:cjc085_0613"
    INDEX 01 04:17:71
  TRACK 125 AUDIO
    TITLE "2:cjc085_0614"
    INDEX 01 04:20:01
  TRACK 126 AUDIO
    TITLE "0:"
    INDEX 01 04:24:40
  TRACK 127 AUDIO
    TITLE "3:cjc085_0615"
    INDEX 01 04:24:68
  TRACK 128 AUDIO
    TITLE "0:"
    INDEX 01 04:29:18
  TRACK 129 AUDIO
    TITLE "4:cjc085_0616"
    INDEX 01 04:29:65
  TRACK 130 AUDIO
    TITLE "2:cjc085_0617"
    INDEX 01 04:31:48
  TRACK 131 AUDIO
    TITLE "0:"
    INDEX 01 04:34:60
  TRACK 132 AUDIO
    TITLE "3:cjc085_0618"
    INDEX 01 04:35:01
  TRACK 133 AUDIO
    TITLE "0:"
    INDEX 01 04:37:70
  TRACK 134 AUDIO
    TITLE "4:cjc085_0619"
    INDEX 01 04:39:10
  TRACK 135 AUDIO
    TITLE "2:cjc085_0620"
    INDEX 01 04:40:67
  TRACK 136 AUDIO
    TITLE "0:"
    INDEX 01 04:47:18
  TRACK 137 AUDIO
    TITLE "3:cjc085_0621"
    INDEX 01 04:47:39
  TRACK 138 AUDIO
    TITLE "0:"
    INDEX 01 04:52:01
  TRACK 139 AUDIO
    TITLE "4:cjc085_0622"
    INDEX 01 04:52:58
  TRACK 140 AUDIO
    TITLE "2:cjc085_0623"
    INDEX 01 04:54:43
  TRACK 141 AUDIO
    TITLE "0:"
    INDEX 01 04:57:47
  TRACK 142 AUDIO
    TITLE "3:cjc085_0624"
    INDEX 01 04:58:04
  TRACK 143 AUDIO
    TITLE "0:"
    INDEX 01 05:01:24
  TRACK 144 AUDIO
    TITLE "4:cjc085_0625"
    INDEX 01 05:02:07
  TRACK 145 AUDIO
    TITLE "2:cjc085_0626"
    INDEX 01 05:03:74
  TRACK 146 AUDIO
    TITLE "0:"
    INDEX 01 05:07:40
  TRACK 147 AUDIO
    TITLE "3:cjc085_0627"
    INDEX 01 05:08:08
  TRACK 148 AUDIO
    TITLE "0:"
    INDEX 01 05:11:24
  TRACK 149 AUDIO
    TITLE "4:cjc085_0628"
    INDEX 01 05:12:10
  TRACK 150 AUDIO
    TITLE "2:cjc085_0629"
    INDEX 01 05:14:11
  TRACK 151 AUDIO
    TITLE "0:"
    INDEX 01 05:16:68
  TRACK 152 AUDIO
    TITLE "3:cjc085_0630"
    INDEX 01 05:17:46
  TRACK 153 AUDIO
    TITLE "0:"
    INDEX 01 05:21:09
  TRACK 154 AUDIO
    TITLE "4:cjc085_0631"
    INDEX 01 05:22:22
  TRACK 155 AUDIO
    TITLE "2:cjc085_0632"
    INDEX 01 05:23:70
  TRACK 156 AUDIO
    TITLE "0:"
    INDEX 01 05:29:67
  TRACK 157 AUDIO
    TITLE "3:cjc085_0633"
    INDEX 01 05:30:08
  TRACK 158 AUDIO
    TITLE "0:"
    INDEX 01 05:34:66
